<svg width="24" height="24" viewBox="0 0 24 24" fill="none" xmlns="http://www.w3.org/2000/svg">
<path d="M11.9998 23.9996C15.1825 23.9996 18.2346 22.7354 20.485 20.485C22.7354 18.2343 23.9996 15.1821 23.9996 11.9998C23.9996 8.81747 22.7354 5.76499 20.485 3.51461C18.2343 1.26424 15.1821 0 11.9998 0C8.81747 0 5.76498 1.26424 3.51461 3.51461C1.26424 5.76525 0 8.81747 0 11.9998C0 14.1063 0.554554 16.1757 1.60771 18C2.66087 19.8243 4.17569 21.3391 5.99997 22.3923C7.82424 23.4455 9.89367 24 12.0002 24L11.9998 23.9996ZM11.9998 2.99925V2.99951C14.3868 2.99951 16.6761 3.94774 18.3639 5.63547C20.0516 7.3232 20.9998 9.61261 20.9998 11.9995C20.9998 14.3864 20.0516 16.6759 18.3639 18.3636C16.6761 20.0513 14.3867 20.9995 11.9998 20.9995C9.61288 20.9995 7.32347 20.0513 5.63574 18.3636C3.94801 16.6759 2.99978 14.3864 2.99978 11.9995C2.99978 9.61261 3.94801 7.3232 5.63574 5.63547C7.32347 3.94774 9.61288 2.99951 11.9998 2.99951V2.99925Z" fill="#6F5BD4"/>
<path d="M12.0001 14.8801L13.8752 15.9264C14.3442 16.1862 14.916 16.1763 15.3756 15.9003C15.8352 15.6241 16.1125 15.1236 16.103 14.5876C16.0936 14.0516 15.7991 13.5612 15.3301 13.3014L13.455 12.2551C13.2403 12.1314 13.0619 11.9532 12.9381 11.7387C12.8144 11.524 12.7495 11.2804 12.7501 11.0324V7.87489C12.7501 7.33917 12.4642 6.84396 12.0001 6.5759C11.5361 6.30803 10.9642 6.30803 10.5002 6.5759C10.0359 6.84402 9.75001 7.33917 9.75001 7.87489V11.0324C9.74844 11.8161 9.95614 12.586 10.3517 13.2625C10.7474 13.9389 11.3164 14.4974 12.0001 14.8801V14.8801Z" fill="#6F5BD4"/>
</svg>
