<svg width="26" height="26" viewBox="0 0 26 26" fill="none" xmlns="http://www.w3.org/2000/svg">
<path d="M21.125 0C22.4679 0 23.6161 0.47678 24.5697 1.43034C25.5232 2.3839 26 3.53212 26 4.875V21.125C26 22.4679 25.5232 23.6161 24.5697 24.5697C23.6161 25.5232 22.4679 26 21.125 26H17.9427V15.9284H21.3112L21.819 12.0013H17.9427V9.49609C17.9427 8.86415 18.0753 8.39019 18.3405 8.07422C18.6057 7.75825 19.122 7.60026 19.8893 7.60026L21.9544 7.58333V4.07943C21.2435 3.97786 20.2392 3.92708 18.9414 3.92708C17.4067 3.92708 16.1795 4.37847 15.2598 5.28125C14.3401 6.18403 13.8802 7.4592 13.8802 9.10677V12.0013H10.4948V15.9284H13.8802V26H4.875C3.53212 26 2.3839 25.5232 1.43034 24.5697C0.47678 23.6161 0 22.4679 0 21.125V4.875C0 3.53212 0.47678 2.3839 1.43034 1.43034C2.3839 0.47678 3.53212 0 4.875 0H21.125Z" fill="black"/>
</svg>
