<svg width="39" height="39" viewBox="0 0 39 39" fill="none" xmlns="http://www.w3.org/2000/svg">
<path fill-rule="evenodd" clip-rule="evenodd" d="M21.6423 5C18.4757 5 15.3082 6.20225 12.8998 8.61048C8.4296 13.0802 8.10998 20.1639 11.9369 25.0095L5.42602 31.5198C5.15334 31.7916 5 32.161 5 32.5461C5 32.9312 5.15334 33.3006 5.42602 33.5728C5.6983 33.8463 6.06809 34 6.45406 34C6.84003 34 7.20981 33.8463 7.48209 33.5728L13.9929 27.0626C18.8398 30.8835 25.9224 30.5699 30.3905 26.1026C35.207 21.2862 35.2013 13.4266 30.3848 8.61098C27.9763 6.20275 24.8089 5.0005 21.6423 5.0005L21.6423 5ZM21.6451 7.87706C24.0653 7.87503 26.4859 8.80103 28.3401 10.655C32.0485 14.363 32.0485 20.3413 28.3401 24.0497C24.6317 27.7578 18.6585 27.7521 14.9503 24.0441C11.2419 20.336 11.2419 14.3719 14.9503 10.6638C16.8045 8.80987 19.225 7.87937 21.6453 7.8774L21.6451 7.87706Z" fill="#303030"/>
</svg>
