<svg width="39" height="39" viewBox="0 0 39 39" fill="none" xmlns="http://www.w3.org/2000/svg">
<path d="M32.618 7.22533C32.5465 7.06014 32.3816 6.90776 32.2609 6.77426L31.9413 6.54861C30.7492 5.77545 28.1715 5.84 25.3684 6.61312C22.0077 7.52063 18.9353 9.27322 16.4435 11.7039C15.7915 12.357 15.1885 13.0569 14.6392 13.7983H14.3814C12.3011 13.6688 10.2341 14.2109 8.48514 15.3448L5.74632 17.1491C5.38582 17.3783 5.1312 17.7417 5.03834 18.1589C4.94574 18.576 5.02238 19.0129 5.25185 19.3734C5.48132 19.7339 5.84476 19.9885 6.26189 20.0811L10.4506 21.0478L8.71056 22.272C8.47434 22.4358 8.32309 22.6963 8.29814 22.9828C8.27319 23.2694 8.37725 23.5519 8.58177 23.7542L9.48393 24.6563H9.35515L8.96858 24.753C8.38828 25.0598 7.85584 25.4506 7.38969 25.9129C5.26311 28.0395 4.90869 31.5836 5.71419 32.8724C5.7751 32.9792 5.85106 33.0769 5.93962 33.1624H5.97175L6.16504 33.3235C6.74333 33.6505 7.40274 33.8069 8.06619 33.7746C9.96395 33.7613 11.7851 33.0237 13.157 31.7125C13.6031 31.2639 13.9829 30.7539 14.2848 30.1981C14.3547 30.0799 14.3985 29.948 14.4136 29.8113V29.5857L15.348 30.5202C15.5265 30.7025 15.7697 30.8065 16.0246 30.8103H16.1212C16.4021 30.7667 16.6496 30.6018 16.7979 30.3593L18.0224 28.5871L18.989 32.7758C19.06 33.0837 19.2198 33.364 19.4491 33.5817C19.6783 33.7995 19.9664 33.9449 20.2777 34H20.5676C21.1153 33.9991 21.6251 33.72 21.9209 33.259L23.693 30.5202C24.8267 28.7712 25.3688 26.7044 25.2395 24.6239V24.3661C25.9808 23.8166 26.6809 23.2138 27.334 22.5619C32.5856 17.3744 33.8746 9.51295 32.618 7.22533ZM30.9425 8.1596C31.3291 8.83633 31.2969 10.8984 30.5559 13.4115C29.654 11.213 27.9153 9.46267 25.7229 8.54635C28.3004 7.80535 30.3948 7.83751 30.9101 8.15978L30.9425 8.1596ZM9.54841 16.9879C10.6933 16.2386 12.0162 15.805 13.3827 15.7313C12.7133 16.8795 12.1524 18.0878 11.7072 19.3399L7.454 18.3735L9.54841 16.9879ZM12.4805 29.4248C12.282 29.7536 12.044 30.0566 11.7717 30.327C10.2894 31.8092 8.00191 31.938 7.32523 31.7447C6.6485 31.5514 7.26073 28.7805 8.74297 27.2983C9.03132 27.0102 9.3563 26.7611 9.70963 26.5573L11.3206 26.4606L12.6093 27.7493L12.4805 29.4248ZM15.0459 28.6033L10.5252 24.0826L12.0613 22.3042L16.7655 27.0083L15.0459 28.6033ZM22.1142 29.5214L20.6965 31.6158L19.7301 27.3627C20.981 26.9278 22.1893 26.3778 23.3386 25.7195C23.258 27.0745 22.8246 28.385 22.0821 29.5214L22.1142 29.5214ZM25.9806 21.2409C23.8223 23.36 21.1788 24.9196 18.28 25.7837L13.2861 20.7898C14.1513 17.8914 15.7109 15.2482 17.8289 13.0892C19.175 11.7407 20.7311 10.6199 22.4365 9.77054C24.243 9.81212 25.9626 10.5552 27.2313 11.8418C28.5002 13.1287 29.2185 14.8584 29.2349 16.6656C28.4011 18.3544 27.3025 19.8991 25.9806 21.2409Z" fill="white" stroke="white" stroke-width="0.5"/>
<path d="M22.7235 12.6055C21.5616 12.6051 20.4655 13.1451 19.7577 14.0666C19.05 14.9883 18.8111 16.1865 19.1114 17.3091C19.4119 18.4315 20.2171 19.3504 21.2905 19.7957C22.3637 20.2407 23.5832 20.1611 24.5896 19.5806C25.596 18.9998 26.2753 17.9842 26.4274 16.8321C26.5793 15.6801 26.1869 14.5228 25.3657 13.7009C24.6669 12.997 23.7153 12.6023 22.7235 12.6055V12.6055ZM24.0122 17.6318C23.6744 17.9714 23.2152 18.1626 22.7363 18.1635C22.2571 18.1642 21.7975 17.9745 21.4586 17.636C21.1194 17.2976 20.9291 16.8382 20.9291 16.3593C20.9291 15.8801 21.1194 15.4207 21.4586 15.0823C21.7975 14.7438 22.2571 14.5541 22.7363 14.5548C23.2152 14.5557 23.6744 14.7469 24.0122 15.0865C24.3487 15.4245 24.5377 15.8821 24.5377 16.3593C24.5377 16.8362 24.3486 17.2938 24.0122 17.6318V17.6318Z" fill="white"/>
</svg>
