<svg width="35" height="35" viewBox="0 0 35 35" fill="none" xmlns="http://www.w3.org/2000/svg">
<path d="M23.9945 0.212106L12.0727 0.101799C5.99623 0.0455771 1.02475 4.92699 0.968535 11.0047L0.858252 22.9292C0.802042 29.0069 5.68239 33.9795 11.7588 34.0357L23.6806 34.146C29.7571 34.2022 34.7285 29.3208 34.7847 23.2431L34.895 11.3186C34.9512 5.24089 30.0709 0.268329 23.9945 0.212106Z" fill="white"/>
<path d="M31.9244 20.6782C31.9322 19.9817 31.9464 19.2789 31.9668 18.5494C31.981 18.0102 31.764 17.908 31.2752 17.9143C29.958 17.93 28.6644 17.8828 27.3456 17.8781C26.8819 17.8781 26.5943 17.6549 26.4685 17.2838C26.3805 16.8939 26.544 16.4537 26.6525 16.2242L29.4755 11.1272C29.6106 10.8804 29.4409 10.5769 29.1595 10.5659L24.9706 10.3914C24.6201 10.3616 24.2963 10.4622 23.9913 10.7011C23.897 10.7609 23.8137 10.8364 23.7446 10.9307C23.6628 11.0172 23.5842 11.1131 23.5056 11.2215C22.9319 12.0108 22.3818 12.8173 21.8191 13.6128C21.4513 14.1316 21.0756 14.7086 20.6999 15.2793C20.2001 15.9805 19.7018 16.6817 19.2035 17.3829C19.0196 17.6423 18.8515 17.9237 18.5009 17.7586C18.2557 17.5715 18.2369 17.1848 18.251 16.6927C18.2589 16.405 18.2652 16.1157 18.2699 15.828C18.2809 15.6456 18.2887 15.4633 18.2903 15.2793C18.2982 14.2134 18.3123 13.2795 18.3092 12.1208C18.306 11.3001 17.8219 10.6162 17.1602 10.4197C16.676 10.2767 16.2454 10.3521 15.8461 10.665C15.7518 10.7247 15.6685 10.8002 15.5993 10.8945C15.5821 10.9118 15.5663 10.9307 15.549 10.9496C15.4642 11.0392 15.3809 11.1398 15.2991 11.2514C14.727 12.0406 14.1753 12.8456 13.6125 13.6411C12.726 14.8957 11.8364 16.1472 10.9452 17.3986C10.8194 17.5778 10.7047 17.7869 10.4312 17.7272C10.2598 17.691 10.2127 17.5417 10.2001 17.3923C10.1828 17.1754 10.1765 16.9552 10.1781 16.7351C10.1844 15.6032 10.2127 14.4712 10.2064 13.3377L10.2284 10.9385C10.2315 10.5597 9.92818 10.2515 9.54937 10.2468L4.57138 10.2012C4.191 10.1981 3.88135 10.5031 3.8782 10.8819L3.85305 13.5955C3.83734 14.2464 3.81219 14.8705 3.78546 15.8532C3.77132 16.3924 4.23972 17.7445 5.96874 17.7602C7.28593 17.7728 7.1036 17.7901 8.42236 17.7948C9.08568 17.7964 9.39218 18.0794 9.37175 18.7758C9.36389 19.0635 9.3576 19.3528 9.35289 19.6405C9.34188 19.8229 9.33403 20.0053 9.33245 20.1892C9.32459 21.2551 9.31045 22.189 9.31359 23.3477C9.31674 24.1684 9.80086 24.8523 10.4626 25.0488C10.9467 25.1919 11.3774 25.1164 11.7766 24.8035C11.871 24.7438 11.9543 24.6683 12.0234 24.574C12.0407 24.5567 12.0564 24.5378 12.0737 24.519C12.1586 24.4294 12.2419 24.3303 12.3236 24.2171C12.8958 23.4279 13.4475 22.6229 14.0102 21.8274C14.8967 20.5728 15.7864 19.3214 16.6776 18.0699C16.8034 17.8907 16.9181 17.6816 17.1916 17.7413C17.3629 17.7775 17.4101 17.9269 17.4227 18.0762C17.44 18.2932 17.4462 18.5133 17.4447 18.7334C17.4368 20.076 17.3221 21.5633 17.4447 22.9012C17.4682 23.1638 17.5013 23.3902 17.5406 23.5851C17.6333 24.2847 18.0813 24.846 18.6707 25.0205C19.3576 25.2249 19.9376 24.9891 20.4704 24.2533C21.0426 23.464 21.5943 22.6591 22.157 21.8636C23.0435 20.609 23.9332 19.3575 24.8244 18.1061C24.9502 17.9269 25.0649 17.7178 25.3384 17.7775C25.5097 17.8137 25.5569 17.963 25.5695 18.1124C25.5868 18.3293 25.593 18.5494 25.5915 18.7695C25.5852 19.8779 25.5585 20.9863 25.5632 22.0947L25.5412 24.4954C25.538 24.8743 25.8414 25.1824 26.2202 25.1871L31.1982 25.2327C31.5786 25.2359 31.8882 24.9309 31.8914 24.552L31.8961 24.1071C31.9087 24.0395 31.9165 23.9624 31.9165 23.8697C31.9134 23.1433 31.9134 22.4437 31.9165 21.7504L31.9259 20.6797L31.9244 20.6782ZM24.2491 17.3782C24.2664 17.3389 24.2853 17.2996 24.301 17.2603C24.2837 17.2996 24.2648 17.3389 24.2476 17.3782H24.2491Z" fill="black"/>
</svg>
