<svg width="35" height="35" viewBox="0 0 35 35" fill="none" xmlns="http://www.w3.org/2000/svg">
<path d="M23.2445 0.212106L11.3227 0.101799C5.24623 0.0455771 0.274745 4.92699 0.218535 11.0047L0.108252 22.9292C0.0520423 29.0069 4.93239 33.9795 11.0088 34.0357L22.9306 34.146C29.0071 34.2022 33.9785 29.3208 34.0347 23.2431L34.145 11.3186C34.2012 5.24089 29.3209 0.268329 23.2445 0.212106Z" fill="black"/>
<path d="M31.1744 20.6782C31.1822 19.9817 31.1964 19.2789 31.2168 18.5494C31.231 18.0102 31.014 17.908 30.5252 17.9143C29.208 17.93 27.9144 17.8828 26.5956 17.8781C26.1319 17.8781 25.8443 17.6549 25.7185 17.2838C25.6305 16.8939 25.794 16.4537 25.9025 16.2242L28.7255 11.1272C28.8606 10.8804 28.6909 10.5769 28.4095 10.5659L24.2206 10.3914C23.8701 10.3616 23.5463 10.4622 23.2413 10.7011C23.147 10.7609 23.0637 10.8364 22.9946 10.9307C22.9128 11.0172 22.8342 11.1131 22.7556 11.2215C22.1819 12.0108 21.6318 12.8173 21.0691 13.6128C20.7013 14.1316 20.3256 14.7086 19.9499 15.2793C19.4501 15.9805 18.9518 16.6817 18.4535 17.3829C18.2696 17.6423 18.1015 17.9237 17.7509 17.7586C17.5057 17.5715 17.4869 17.1848 17.501 16.6927C17.5089 16.405 17.5152 16.1157 17.5199 15.828C17.5309 15.6456 17.5387 15.4633 17.5403 15.2793C17.5482 14.2134 17.5623 13.2795 17.5592 12.1208C17.556 11.3001 17.0719 10.6162 16.4102 10.4197C15.926 10.2767 15.4954 10.3521 15.0961 10.665C15.0018 10.7247 14.9185 10.8002 14.8493 10.8945C14.8321 10.9118 14.8163 10.9307 14.799 10.9496C14.7142 11.0392 14.6309 11.1398 14.5491 11.2514C13.977 12.0406 13.4253 12.8456 12.8625 13.6411C11.976 14.8957 11.0864 16.1472 10.1952 17.3986C10.0694 17.5778 9.95466 17.7869 9.68116 17.7272C9.50983 17.691 9.46268 17.5417 9.4501 17.3923C9.43281 17.1754 9.42653 16.9552 9.4281 16.7351C9.43439 15.6032 9.46268 14.4712 9.45639 13.3377L9.4784 10.9385C9.48154 10.5597 9.17818 10.2515 8.79937 10.2468L3.82138 10.2012C3.441 10.1981 3.13135 10.5031 3.1282 10.8819L3.10305 13.5955C3.08734 14.2464 3.06219 14.8705 3.03546 15.8532C3.02132 16.3924 3.48972 17.7445 5.21874 17.7602C6.53593 17.7728 6.3536 17.7901 7.67236 17.7948C8.33568 17.7964 8.64218 18.0794 8.62175 18.7758C8.61389 19.0635 8.6076 19.3528 8.60289 19.6405C8.59188 19.8229 8.58403 20.0053 8.58245 20.1892C8.57459 21.2551 8.56045 22.189 8.56359 23.3477C8.56674 24.1684 9.05086 24.8523 9.7126 25.0488C10.1967 25.1919 10.6274 25.1164 11.0266 24.8035C11.121 24.7438 11.2043 24.6683 11.2734 24.574C11.2907 24.5567 11.3064 24.5378 11.3237 24.519C11.4086 24.4294 11.4919 24.3303 11.5736 24.2171C12.1458 23.4279 12.6975 22.6229 13.2602 21.8274C14.1467 20.5728 15.0364 19.3214 15.9276 18.0699C16.0534 17.8907 16.1681 17.6816 16.4416 17.7413C16.6129 17.7775 16.6601 17.9269 16.6727 18.0762C16.69 18.2932 16.6962 18.5133 16.6947 18.7334C16.6868 20.076 16.5721 21.5633 16.6947 22.9012C16.7182 23.1638 16.7513 23.3902 16.7906 23.5851C16.8833 24.2847 17.3313 24.846 17.9207 25.0205C18.6076 25.2249 19.1876 24.9891 19.7204 24.2533C20.2926 23.464 20.8443 22.6591 21.407 21.8636C22.2935 20.609 23.1832 19.3575 24.0744 18.1061C24.2002 17.9269 24.3149 17.7178 24.5884 17.7775C24.7597 17.8137 24.8069 17.963 24.8195 18.1124C24.8368 18.3293 24.843 18.5494 24.8415 18.7695C24.8352 19.8779 24.8085 20.9863 24.8132 22.0947L24.7912 24.4954C24.788 24.8743 25.0914 25.1824 25.4702 25.1871L30.4482 25.2327C30.8286 25.2359 31.1382 24.9309 31.1414 24.552L31.1461 24.1071C31.1587 24.0395 31.1665 23.9624 31.1665 23.8697C31.1634 23.1433 31.1634 22.4437 31.1665 21.7504L31.1759 20.6797L31.1744 20.6782ZM23.4991 17.3782C23.5164 17.3389 23.5353 17.2996 23.551 17.2603C23.5337 17.2996 23.5148 17.3389 23.4976 17.3782H23.4991Z" fill="white"/>
</svg>
