<svg width="66" height="35" viewBox="0 0 66 35" fill="none" xmlns="http://www.w3.org/2000/svg">
<path d="M37.918 10.2891H39.724L41.0183 15.5265L42.4646 10.2891H43.8522L45.2986 15.5265L46.5944 10.2891H48.3929L46.3265 17.7711H44.3745L43.1539 13.357L41.9334 17.7711H39.9844L37.918 10.2891Z" fill="white"/>
<path d="M51.6027 16.3749C51.8069 16.38 52.0101 16.3478 52.2001 16.28C52.3901 16.2122 52.5628 16.1103 52.7079 15.9805L54.0882 16.6976C53.5251 17.4045 52.6723 17.7681 51.5784 17.7681C49.6107 17.7681 48.3906 16.572 48.3906 15.0254C48.3906 13.4788 49.6334 12.2812 51.4522 12.2812C53.1335 12.2812 54.3762 13.4496 54.3762 15.0254C54.3775 15.2344 54.3542 15.443 54.3067 15.6476H50.2143C50.4392 16.1806 50.9684 16.3749 51.6027 16.3749ZM52.661 14.4763C52.5968 14.2319 52.4394 14.0158 52.2163 13.8657C51.9932 13.7156 51.7187 13.6412 51.4409 13.6555C50.7855 13.6555 50.347 13.9476 50.1868 14.4763H52.661Z" fill="white"/>
<path d="M61.3529 15.0051C61.3529 16.5649 60.1504 17.7711 58.6912 17.7711C57.9443 17.7711 57.3995 17.5296 57.0315 17.1319V17.6239H55.3672V10.2891H57.0378V12.8769C57.4057 12.4792 57.9506 12.2376 58.6974 12.2376C60.1567 12.2376 61.3529 13.4439 61.3529 15.0051ZM59.6823 15.0051C59.6823 14.2186 59.1249 13.7267 58.3577 13.7267C57.5905 13.7267 57.0315 14.2186 57.0315 15.0051C57.0315 15.7916 57.5889 16.2821 58.3577 16.2821C59.1264 16.2821 59.6885 15.7843 59.6885 15.0051H59.6823Z" fill="white"/>
<path d="M37.918 20.7598H39.7717L41.4096 26.2647L43.0475 20.7598H44.9012L42.4861 28.2418H40.3331L37.918 20.7598Z" fill="white"/>
<path d="M45.3945 21.2582C45.3942 21.0617 45.4525 20.8695 45.562 20.7059C45.6715 20.5424 45.8273 20.4149 46.0097 20.3396C46.192 20.2642 46.3927 20.2444 46.5864 20.2827C46.78 20.3209 46.9579 20.4155 47.0976 20.5545C47.2372 20.6935 47.3322 20.8705 47.3707 21.0633C47.4091 21.2561 47.3892 21.4558 47.3135 21.6373C47.2378 21.8188 47.1097 21.9739 46.9454 22.0829C46.7811 22.1919 46.588 22.2499 46.3906 22.2496C46.1272 22.2472 45.8752 22.1419 45.689 21.9565C45.5027 21.7711 45.397 21.5204 45.3945 21.2582V21.2582ZM45.5611 22.7345H47.2248V28.2446H45.5611V22.7345Z" fill="white"/>
<path d="M54.3763 25.4747C54.3763 27.0366 53.1735 28.2418 51.7174 28.2418C50.9713 28.2418 50.4255 28.0017 50.0595 27.6024V28.096H48.3906V20.7598H50.0595V23.3486C50.4255 22.9508 50.9713 22.7091 51.7174 22.7091C53.1735 22.7106 54.3763 23.9159 54.3763 25.4747ZM52.7074 25.4747C52.7074 24.6894 52.1506 24.1973 51.3827 24.1973C50.6147 24.1973 50.0595 24.6894 50.0595 25.4747C50.0595 26.2601 50.6147 26.7537 51.3827 26.7537C52.1506 26.7537 52.7074 26.2645 52.7074 25.4747V25.4747Z" fill="white"/>
<path d="M58.0871 26.8506C58.291 26.8559 58.4941 26.8236 58.6838 26.7558C58.8735 26.688 59.046 26.5861 59.1907 26.4561L60.5726 27.1734C60.0095 27.879 59.1567 28.2427 58.0628 28.2427C56.0951 28.2427 54.875 27.0478 54.875 25.4993C54.875 23.9508 56.1178 22.7559 57.9366 22.7559C59.6179 22.7559 60.8606 23.9245 60.8606 25.4993C60.8619 25.7089 60.8386 25.9179 60.791 26.1231H56.7052C56.922 26.665 57.4527 26.8506 58.0871 26.8506ZM59.1454 24.9602C59.0812 24.7158 58.9238 24.4996 58.7007 24.3495C58.4776 24.1994 58.203 24.1249 57.9253 24.1393C57.2699 24.1393 56.8314 24.4314 56.6712 24.9602H59.1454Z" fill="white"/>
<path d="M65.8447 26.5397C65.8447 27.7345 64.7825 28.2427 63.6366 28.2427C62.5759 28.2427 61.7687 27.8484 61.3555 27.0071L62.7355 26.2389C62.7909 26.4256 62.9099 26.5881 63.0728 26.6995C63.2356 26.8108 63.4325 26.8642 63.6307 26.8508C64.0126 26.8508 64.2036 26.7369 64.2036 26.5295C64.2036 25.957 61.5927 26.2593 61.5927 24.4614C61.5927 23.3295 62.5699 22.7569 63.6739 22.7569C64.089 22.7444 64.4999 22.8411 64.8638 23.0368C65.2277 23.2326 65.5314 23.5202 65.7433 23.8699L64.3841 24.5855C64.3246 24.4495 64.2256 24.3336 64.0993 24.2523C63.973 24.171 63.8251 24.1279 63.6739 24.1284C63.3979 24.1284 63.2264 24.2335 63.2264 24.4205C63.2338 25.012 65.8447 24.6206 65.8447 26.5397Z" fill="white"/>
<path d="M23.1833 0.522078L11.2913 0.41207C5.23003 0.356 0.270953 5.22417 0.214883 11.2854L0.104875 23.1775C0.0488058 29.2387 4.91697 34.1978 10.9782 34.2539L22.8703 34.3639C28.9315 34.42 33.8906 29.5518 33.9467 23.4905L34.0567 11.5985C34.1128 5.53722 29.2446 0.578147 23.1833 0.522078Z" fill="white"/>
<path d="M30.8881 20.7206C30.8959 20.0273 30.9083 19.3277 30.9286 18.6014C30.9426 18.0646 30.7276 17.9629 30.2431 17.9754C28.9375 17.991 27.6554 17.9441 26.3482 17.9394C25.8809 17.9394 25.6036 17.7171 25.4789 17.3478C25.3932 16.9596 25.5553 16.5214 25.6612 16.2929L28.4655 11.2172C28.4963 11.1611 28.5123 11.098 28.512 11.0339C28.5118 10.9698 28.4953 10.9068 28.4642 10.8509C28.433 10.795 28.3881 10.748 28.3338 10.7143C28.2795 10.6806 28.2176 10.6614 28.1539 10.6585L24.002 10.4847C23.65 10.4564 23.3012 10.5689 23.0314 10.7978C22.9363 10.8578 22.8533 10.9353 22.7868 11.0263C22.6982 11.114 22.615 11.207 22.5375 11.3049C21.9705 12.0874 21.4252 12.8935 20.8674 13.6854C20.5013 14.2019 20.129 14.781 19.7582 15.3444L18.275 17.4386C18.0912 17.6968 17.9261 17.977 17.5786 17.8126C17.3356 17.6279 17.3169 17.2414 17.3309 16.7515C17.3403 16.4651 17.345 16.1771 17.3496 15.8907C17.3605 15.7091 17.3683 15.5275 17.3699 15.3444C17.3777 14.2848 17.3917 13.3536 17.387 12.2001C17.387 11.3831 16.9041 10.7023 16.2497 10.5066C16.0299 10.4324 15.7949 10.4159 15.5669 10.4586C15.339 10.5014 15.1257 10.6019 14.9473 10.7508C14.8522 10.8108 14.7692 10.8883 14.7027 10.9793C14.6849 10.9964 14.6682 11.0147 14.6528 11.0341C14.5637 11.1286 14.4809 11.229 14.4051 11.3346C13.8381 12.1172 13.2912 12.9216 12.7335 13.7136C11.8548 14.9657 10.972 16.2125 10.085 17.4542C9.9588 17.6326 9.84507 17.8408 9.57555 17.7813C9.40573 17.7453 9.359 17.5966 9.34653 17.4479C9.3294 17.232 9.32316 17.0128 9.32472 16.7937C9.32472 15.6668 9.359 14.5384 9.35121 13.4115L9.37457 11.0231C9.3754 10.9335 9.35864 10.8446 9.32526 10.7615C9.29188 10.6784 9.24254 10.6027 9.18004 10.5388C9.11754 10.4748 9.04312 10.4239 8.96102 10.3888C8.87892 10.3538 8.79075 10.3353 8.70155 10.3345L3.76758 10.2891C3.67817 10.2883 3.58948 10.3051 3.50656 10.3388C3.42365 10.3724 3.34813 10.4221 3.28433 10.485C3.22053 10.5479 3.1697 10.6229 3.13473 10.7055C3.09976 10.7882 3.08134 10.877 3.08053 10.9668L3.06339 13.6697C3.04781 14.3161 3.02289 14.9375 2.9964 15.9173C2.98238 16.4541 3.44509 17.7954 5.15881 17.8142C6.46436 17.8267 6.2852 17.8439 7.5923 17.8486C8.24819 17.8486 8.55199 18.1319 8.52706 18.8253C8.52706 19.1132 8.51304 19.3997 8.50836 19.6861C8.49746 19.8692 8.48967 20.0507 8.48811 20.2323C8.48811 21.2934 8.4663 22.2231 8.47097 23.3766C8.47097 24.1936 8.95393 24.876 9.60826 25.0716C9.82812 25.1463 10.0634 25.1629 10.2915 25.1198C10.5195 25.0768 10.7328 24.9756 10.9107 24.8259C11.0088 24.767 11.0949 24.69 11.1646 24.599C11.1818 24.5802 11.1989 24.563 11.2145 24.5442C11.3036 24.4491 11.3864 24.3482 11.4622 24.2421C12.0293 23.4596 12.5761 22.6551 13.1339 21.8632C14.0125 20.6111 14.8954 19.3642 15.7823 18.1225C15.907 17.9441 16.0207 17.7359 16.2902 17.7954C16.4601 17.833 16.5068 17.9801 16.5193 18.1288C16.5364 18.3463 16.5442 18.5654 16.5411 18.7846C16.5411 20.1196 16.4195 21.6018 16.5411 22.9321C16.5595 23.1607 16.5913 23.3881 16.6361 23.613C16.7296 24.3094 17.1736 24.8651 17.7562 25.0419C18.4371 25.2454 19.0119 25.0106 19.5401 24.2781C20.1072 23.4956 20.654 22.6911 21.2117 21.8991C22.0904 20.6471 22.9732 19.4002 23.8602 18.1585C23.9849 17.9801 24.0986 17.7719 24.3681 17.8314C24.5379 17.869 24.5847 18.0161 24.5987 18.1648C24.6158 18.3823 24.6221 18.6014 24.6205 18.8206C24.6127 19.9161 24.5862 21.0258 24.5925 22.1292L24.5629 24.5192C24.562 24.6088 24.5788 24.6977 24.6122 24.7808C24.6455 24.8639 24.6949 24.9396 24.7574 25.0035C24.8199 25.0675 24.8943 25.1184 24.9764 25.1535C25.0585 25.1885 25.1467 25.207 25.2359 25.2078L30.1699 25.2532C30.2593 25.254 30.348 25.2372 30.4309 25.2035C30.5138 25.1699 30.5893 25.1202 30.6531 25.0573C30.7169 24.9944 30.7677 24.9194 30.8027 24.8368C30.8377 24.7541 30.8561 24.6653 30.8569 24.5755V24.1326C30.8709 24.0546 30.8777 23.9755 30.8772 23.8962C30.8772 23.1732 30.8772 22.4767 30.8772 21.7865L30.8881 20.7206ZM23.2807 17.4339L23.3321 17.3149L23.2807 17.4339Z" fill="black"/>
</svg>
