<svg width="26" height="26" viewBox="0 0 26 26" fill="none" xmlns="http://www.w3.org/2000/svg">
<path d="M19.5 12.3984C19.6992 12.6992 19.8984 13 20 13.5H16.8008C16.8008 13.3984 16.8008 13.1992 16.8984 13C17 12.8008 17 12.6992 17.1992 12.5C17.3008 12.3008 17.5 12.1992 17.6992 12.1016C17.8984 12 18.1992 11.8984 18.5 11.8984C18.8984 12 19.3008 12.1016 19.5 12.3984ZM10.3008 11.6992C10.5 11.5 10.6992 11.1992 10.6992 10.8008C10.6992 10.6016 10.6992 10.3984 10.6016 10.1992C10.5 10.1016 10.3984 9.89844 10.3008 9.89844C10.1992 9.80078 10 9.80078 9.80078 9.69922C9.60156 9.69922 9.39844 9.69922 9.19922 9.69922H7.19922V12H9.39844C9.69922 12 10 11.8984 10.3008 11.6992ZM9.5 13.3984H7.19922V16.1016H9.5C9.69922 16.1016 9.89844 16.1016 10.1016 16C10.3008 16 10.5 15.8984 10.6016 15.8008C10.6992 15.6992 10.8984 15.6016 11 15.3984C11.1016 15.1992 11.1016 15 11.1016 14.8008C11.1016 14.3008 11 13.8984 10.6992 13.6992C10.3984 13.5 10 13.3984 9.5 13.3984ZM26 4.89844V21.1016C26 23.8008 23.8008 26 21.1016 26H4.89844C2.19922 26 0 23.8008 0 21.1016V4.89844C0 2.19922 2.19922 0 4.89844 0H21.1016C23.8008 0 26 2.19922 26 4.89844ZM16.3984 9.60156H20.3984V8.60156H16.3984V9.60156ZM13.1992 15C13.1992 14.3984 13.1016 13.8984 12.8008 13.3984C12.5 13 12.1016 12.6992 11.5 12.5C11.8984 12.3008 12.3008 12 12.5 11.6992C12.6992 11.3984 12.8008 11 12.8008 10.5C12.8008 10 12.6992 9.69922 12.6016 9.30078C12.3984 9 12.1992 8.69922 12 8.60156C11.6992 8.39844 11.3984 8.30078 11 8.19922C10.5 8 10.1016 8 9.60156 8H5V17.8008H9.80078C10.1992 17.8008 10.6992 17.6992 11.1016 17.6016C11.5 17.5 11.8984 17.3008 12.1992 17.1016C12.5 16.8984 12.8008 16.6016 13 16.1992C13.1016 15.8984 13.1992 15.5 13.1992 15ZM16.8008 14.6992H21.8984C21.8984 14.1016 21.8984 13.6016 21.8008 13.1016C21.6992 12.6016 21.5 12.1016 21.1992 11.8008C20.8984 11.3984 20.5 11.1016 20.1016 10.8984C19.6016 10.6992 19.1016 10.5 18.5 10.5C18 10.5 17.5 10.6016 17 10.8008C16.6016 11 16.1992 11.3008 15.8008 11.6016C15.5 11.8984 15.1992 12.3008 15.1016 12.8008C14.8984 13.3008 14.8008 13.8008 14.8008 14.3008C14.8008 14.8008 14.8984 15.3984 15.1016 15.8008C15.3008 16.3008 15.5 16.6992 15.8008 17C16.1016 17.3008 16.5 17.6016 16.8984 17.8008C17.3984 18 17.8984 18.1016 18.3984 18.1016C19.1992 18.1016 19.8984 17.8984 20.5 17.5C21.1016 17.1016 21.5 16.5 21.8008 15.6992H20.1016C20 15.8984 19.8984 16.1016 19.6016 16.3008C19.3008 16.5 19 16.6016 18.6016 16.6016C18.1016 16.6016 17.6016 16.5 17.3008 16.1992C17 15.8008 16.8008 15.3008 16.8008 14.6992Z" fill="black"/>
</svg>
