<svg width="26" height="26" viewBox="0 0 26 26" fill="none" xmlns="http://www.w3.org/2000/svg">
<path fill-rule="evenodd" clip-rule="evenodd" d="M5 0C2.23828 0 0 2.23828 0 5V21C0 23.7617 2.23828 26 5 26H21C23.7617 26 26 23.7617 26 21V5C26 2.23828 23.7617 0 21 0H5ZM17.2734 7.47656C17.3594 7.45312 17.4492 7.44141 17.5391 7.44141C17.8086 7.44141 18.0703 7.54883 18.2617 7.74023C18.375 7.85352 18.457 7.98828 18.5039 8.13672C18.5391 8.24023 18.5586 8.34961 18.5586 8.46094C18.5586 8.66211 18.5 8.85938 18.3867 9.02734C18.2734 9.19531 18.1172 9.32617 17.9297 9.4043C17.7422 9.48047 17.5391 9.5 17.3398 9.46094C17.1406 9.42188 16.9609 9.32422 16.8164 9.18164C16.7422 9.10742 16.6797 9.02148 16.6328 8.92773C16.5898 8.84375 16.5586 8.75391 16.5391 8.66016C16.5 8.46289 16.5195 8.25781 16.5977 8.07031C16.6562 7.93359 16.7383 7.80859 16.8477 7.70898L16.9727 7.61328C17.0664 7.55078 17.168 7.50391 17.2734 7.47656ZM21.0586 7.43164C21.3008 8.0957 21.4336 8.79297 21.4492 9.49805C21.5 10.3984 21.5 10.6875 21.5 13C21.5 14.3203 21.4844 14.9805 21.4727 15.4727C21.4609 15.8418 21.4492 16.1152 21.4492 16.502C21.4336 17.207 21.3008 17.9043 21.0586 18.5684C20.9023 18.9766 20.6836 19.3594 20.4102 19.6992C20.3047 19.8301 20.1914 19.9551 20.0703 20.0723C19.6523 20.5078 19.1367 20.8418 18.5664 21.0488C17.9062 21.2988 17.207 21.4336 16.5039 21.4492L15.8398 21.4805C15.2852 21.5 14.6719 21.5 13 21.5L10.5508 21.4922C10.168 21.4844 9.89062 21.4707 9.49609 21.4492C8.95312 21.4375 8.41406 21.3555 7.89453 21.2012L7.43359 21.0488C6.86328 20.8398 6.35156 20.5059 5.92969 20.0723C5.49219 19.6504 5.15625 19.1367 4.94922 18.5684C4.69922 17.9062 4.56641 17.209 4.55078 16.502C4.5 15.6016 4.5 15.3125 4.5 13C4.5 11.5977 4.5 10.9395 4.51172 10.4395L4.55078 9.49805C4.56641 8.79102 4.69922 8.09375 4.94922 7.43164C5.15625 6.86328 5.49219 6.34961 5.92969 5.92773C6.16797 5.68359 6.43359 5.4707 6.72266 5.29297C6.94531 5.15625 7.18359 5.04297 7.43359 4.95117C8.09375 4.70117 8.79297 4.56641 9.49609 4.55078C10.3984 4.5 10.6875 4.5 13 4.5C15.3125 4.5 15.6016 4.5 16.5039 4.55078C17.207 4.56641 17.9062 4.70117 18.5664 4.95117C19.1367 5.1582 19.6523 5.49219 20.0703 5.92773C20.5039 6.35156 20.8438 6.86523 21.0586 7.43164ZM19.6289 17.9805C19.8164 17.4746 19.9141 16.9395 19.918 16.4004C19.9609 15.5508 19.9688 15.2363 19.9688 13C19.9688 10.7637 19.9609 10.4492 19.918 9.59961C19.918 9.27148 19.8828 8.94727 19.8164 8.62891C19.7695 8.41016 19.707 8.19531 19.6289 7.98438C19.5508 7.79297 19.4531 7.60938 19.3359 7.44141C19.2344 7.30078 19.1172 7.16992 18.9922 7.05078C18.7148 6.74609 18.3672 6.51367 17.9805 6.36914C17.4727 6.18555 16.9414 6.08789 16.3984 6.08008C15.5508 6.0293 15.2344 6.0293 13 6.0293C10.7656 6.0293 10.4492 6.08008 9.60156 6.08008C9.05078 6.08594 8.50391 6.18359 7.98438 6.36914C7.62891 6.52539 7.30859 6.75781 7.05078 7.05078C6.75781 7.30664 6.52734 7.62695 6.37891 7.98438C6.18359 8.50195 6.08594 9.04883 6.08203 9.59961C6.03125 10.4492 6.03125 10.7637 6.03125 13C6.03125 15.2363 6.08203 15.5508 6.08203 16.4004C6.09766 16.9551 6.21484 17.5 6.42188 18.0156C6.55078 18.3848 6.76953 18.7188 7.05078 18.9922C7.21484 19.1641 7.40234 19.3125 7.60547 19.4355C7.72656 19.5098 7.85156 19.5762 7.98438 19.6309C8.51562 19.8086 9.07422 19.8945 9.63281 19.8848C10.4844 19.9355 10.7969 19.9355 13.0352 19.9355C15.2695 19.9355 15.5859 19.9277 16.4336 19.8848C16.9727 19.8789 17.5078 19.7812 18.0156 19.5957C18.3828 19.457 18.7188 19.2402 18.9922 18.959C19.2773 18.6855 19.4961 18.3516 19.6289 17.9805ZM10.5781 9.37891C11.2969 8.89844 12.1367 8.64062 13 8.63867C13.5742 8.63672 14.1406 8.74805 14.6719 8.9668C15.2031 9.18555 15.6836 9.50586 16.0898 9.91211C16.4961 10.3164 16.8203 10.7988 17.0391 11.3281C17.2578 11.8574 17.3711 12.4258 17.3672 13C17.3672 13.8613 17.1133 14.7051 16.6328 15.4219C16.1562 16.1387 15.4766 16.6973 14.6797 17.0273C13.8828 17.3574 13.0078 17.4453 12.1602 17.2773C11.3164 17.1094 10.5391 16.6953 9.92969 16.0859C9.31641 15.4766 8.90234 14.7012 8.73438 13.8555C8.5625 13.0098 8.64844 12.1348 8.97656 11.3379C9.30469 10.541 9.86328 9.85938 10.5781 9.37891ZM11.4258 15.3535C11.8945 15.6641 12.4414 15.8301 13 15.8301C13.3711 15.8301 13.7383 15.7578 14.082 15.6152C14.2891 15.5293 14.4844 15.4199 14.6641 15.2891C14.7812 15.2012 14.8945 15.1055 15 15.002C15.2656 14.7383 15.4727 14.4258 15.6133 14.084C15.7578 13.7402 15.832 13.3711 15.832 13C15.832 12.7109 15.7891 12.4258 15.7031 12.1543C15.6211 11.8984 15.5039 11.6543 15.3516 11.4277C15.043 10.9629 14.6016 10.5996 14.082 10.3848C13.5664 10.1699 12.9961 10.1152 12.4492 10.2246C11.8984 10.334 11.3945 10.6035 11 10.998C10.6016 11.3945 10.332 11.8984 10.2227 12.4473C10.1133 12.9961 10.1719 13.5664 10.3867 14.084C10.5977 14.5996 10.9609 15.043 11.4258 15.3535Z" fill="black"/>
</svg>
