<svg id="Layer_1" data-name="Layer 1" xmlns="http://www.w3.org/2000/svg" viewBox="0 0 58.74 48.07"><path d="M57.57,28.32H6.31a3.68,3.68,0,0,0,0,7.36H57.69A3.61,3.61,0,0,0,61.37,32a3.72,3.72,0,0,0-3.8-3.68Z" transform="translate(-2.63 -7.96)"/><path d="M57.57,8H6.31a3.61,3.61,0,0,0-3.68,3.68,3.61,3.61,0,0,0,3.68,3.68H57.69a3.61,3.61,0,0,0,3.68-3.68A3.72,3.72,0,0,0,57.57,8Z" transform="translate(-2.63 -7.96)"/><path d="M57.57,48.68H6.31a3.68,3.68,0,0,0,0,7.36H57.69a3.61,3.61,0,0,0,3.68-3.68,3.72,3.72,0,0,0-3.8-3.68Z" transform="translate(-2.63 -7.96)"/></svg>