<svg width="40" height="39" viewBox="0 0 40 39" fill="none" xmlns="http://www.w3.org/2000/svg">
<path d="M35.4493 6.53822C33.71 6.53822 32.2191 7.69778 31.7223 9.27155H24.1023V7.15956C24.1023 6.49689 23.5638 6 22.9427 6H16.3995C15.7368 6 15.2399 6.53846 15.2399 7.15956V9.27155H7.61992C7.12305 7.69778 5.63217 6.53822 3.8929 6.53822C1.73935 6.53822 0 8.27757 0 10.4311C0 12.5847 1.73935 14.324 3.8929 14.324C5.63224 14.324 7.12311 13.1644 7.61992 11.5907H12.341C9.11079 13.8685 6.95724 17.6784 6.95724 21.9439C6.95724 22.6066 7.49569 23.1035 8.1168 23.1035C8.77947 23.1035 9.27636 22.565 9.27636 21.9439C9.27636 17.844 11.6783 14.2825 15.1983 12.5846V13.7028C15.1983 14.3655 15.7367 14.8624 16.3578 14.8624H22.9424C23.6051 14.8624 24.102 14.3239 24.102 13.7028V12.5846C27.6225 14.3239 30.0245 17.8441 30.0245 21.9853C30.0245 22.648 30.563 23.1449 31.1841 23.1449C31.8467 23.1449 32.3436 22.6065 32.3436 21.9853C32.3436 17.7198 30.2316 13.9098 26.9599 11.6321H31.6809C32.1778 13.2059 33.6687 14.3654 35.408 14.3654C37.5615 14.3654 39.3009 12.6261 39.3009 10.4725C39.3425 8.31898 37.6032 6.53807 35.4496 6.53807L35.4493 6.53822ZM3.8926 12.0049C3.02278 12.0049 2.31883 11.3009 2.31883 10.4311C2.31883 9.56133 3.02282 8.85735 3.8926 8.85735C4.76238 8.85735 5.46637 9.56133 5.46637 10.4311C5.46637 11.3009 4.7621 12.0049 3.8926 12.0049ZM21.783 12.5847H17.5591V8.31911H21.7833L21.783 12.5847ZM35.4493 12.0049C34.5795 12.0049 33.8755 11.3009 33.8755 10.4311C33.8755 9.56133 34.5795 8.85735 35.4493 8.85735C36.3191 8.85735 37.0231 9.56133 37.0231 10.4311C37.0231 11.3009 36.3191 12.0049 35.4493 12.0049Z" fill="#303030"/>
<path d="M20.6249 17.2625C20.4178 16.9725 20.0451 16.7656 19.6725 16.7656C19.2998 16.7656 18.9272 16.9312 18.7201 17.2625L13.7918 24.2197C13.6263 24.4682 13.5434 24.7995 13.5847 25.0895L14.7856 32.0468C14.8685 32.6266 15.3653 32.9992 15.9451 32.9992H23.4409C24.0206 32.9992 24.4762 32.585 24.6004 32.0468L25.8013 25.0895C25.8426 24.7995 25.8013 24.4685 25.5941 24.2197L20.6249 17.2625ZM22.4472 30.6803H16.8979L15.9455 25.1724L18.4717 21.6109V25.2553C18.099 25.5866 17.8919 26.0422 17.8919 26.539C17.8919 27.4914 18.6788 28.2783 19.6312 28.2783C20.5837 28.2783 21.3706 27.4914 21.3706 26.539C21.3706 26.0421 21.1635 25.5866 20.7908 25.2553V21.6109L23.317 25.1724L22.4472 30.6803Z" fill="#303030"/>
</svg>
