<svg width="104" height="43" viewBox="0 0 104 43" fill="none" xmlns="http://www.w3.org/2000/svg">
<g clip-path="url(#clip0_1347_96)">
<path d="M61.4948 10.1875H63.663L66.1264 16.6245L67.976 10.1875H70.1079L71.9212 16.6245L74.149 10.1875H76.2809L73.0817 19.4461H70.8177L69.051 12.9009L67.1548 19.4461H65.0229L61.4922 10.1875H61.4948Z" fill="black"/>
<path d="M76 15.7095C76 13.3105 78.0982 11.7695 80.5488 11.7695C82.7998 11.7695 84.8981 13.0373 84.9084 15.7379C84.9084 15.9569 84.8851 16.1888 84.8385 16.3924C84.1753 16.3924 79.1033 16.4208 78.3443 16.4208C78.3806 17.4695 79.2328 18.3431 80.4659 18.3431C81.3181 18.3431 82.1471 17.9875 82.6936 17.3072L84.4007 17.6345C83.8075 18.8482 82.2921 19.6264 80.4918 19.6264C78.0387 19.6264 76 18.0983 76 15.7121V15.7095ZM78.3106 15.4364L82.6004 15.4235C82.6004 14.0732 81.7248 13.1327 80.4685 13.1327C79.0826 13.1327 78.3003 14.3052 78.3132 15.4364H78.3106Z" fill="black"/>
<path d="M86.0586 8.81055H88.2397V13.7736C88.9158 12.8742 90.5271 12.0136 91.843 12.0136C94.1666 12.0136 96.0006 13.3896 96.0006 15.7371C96.0006 17.796 94.164 19.5689 91.7109 19.5689C90.3613 19.5689 88.7967 18.6825 88.2397 17.8914V19.4452H86.0586V8.81055V8.81055ZM90.9389 18.1645C92.4802 18.1645 93.8065 17.4018 93.8065 15.7371C93.8065 14.2658 92.8222 13.3922 91.2239 13.3922C89.4002 13.3922 88.2371 14.7837 88.2371 15.8608C88.2371 16.938 89.4572 18.1645 90.9389 18.1645Z" fill="black"/>
<path d="M61.4948 23.8887H63.65L66.1031 30.9106L68.3179 23.8887H70.4498L67.274 32.851H64.9996L61.4922 23.8887H61.4948Z" fill="black"/>
<path d="M72.7456 22.582H71.7975C71.4541 22.582 71.1758 22.8589 71.1758 23.2005V24.525C71.1758 24.8665 71.4541 25.1434 71.7975 25.1434H72.7456C73.0889 25.1434 73.3673 24.8665 73.3673 24.525V23.2005C73.3673 22.8589 73.0889 22.582 72.7456 22.582Z" fill="black"/>
<path d="M73.3673 26.25H71.1758V32.8493H73.3673V26.25Z" fill="black"/>
<path d="M75.0156 22.5553H77.1968V27.3586C77.8729 26.4876 79.4841 25.6553 80.8 25.6553C83.1236 25.6553 84.9576 26.9875 84.9576 29.2577C84.9576 31.2496 83.121 32.9658 80.6679 32.9658C79.3183 32.9658 77.7537 32.1077 77.1968 31.3424V32.8473H75.0156V22.5527V22.5553ZM79.896 31.6104C81.4373 31.6104 82.7636 30.8708 82.7636 29.2603C82.7636 27.8353 81.7792 26.9901 80.1809 26.9901C78.3573 26.9901 77.1942 28.3352 77.1942 29.3788C77.1942 30.4225 78.4142 31.6104 79.896 31.6104V31.6104Z" fill="black"/>
<path d="M85.7148 29.2356C85.7148 26.9139 87.8131 25.4219 90.2636 25.4219C92.5147 25.4219 94.6129 26.6485 94.6233 29.2614C94.6233 29.4727 94.6 29.6969 94.5533 29.8953C93.8902 29.8953 88.8182 29.9211 88.0592 29.9211C88.0954 30.9363 88.9477 31.7816 90.1807 31.7816C91.033 31.7816 91.8619 31.4388 92.4085 30.7792L94.1156 31.0961C93.5224 32.2712 92.007 33.0236 90.2066 33.0236C87.7535 33.0236 85.7148 31.5445 85.7148 29.2356V29.2356ZM88.0255 28.9728L92.3152 28.9599C92.3152 27.6534 91.4397 26.7438 90.1833 26.7438C88.7974 26.7438 88.0151 27.8776 88.0281 28.9754L88.0255 28.9728Z" fill="black"/>
<path d="M99.6983 25.248C101.807 25.248 103.952 25.7892 103.952 27.8481H101.82C101.82 26.8972 100.825 26.7658 99.6983 26.7658C98.359 26.7658 97.341 26.9513 97.341 27.7811C97.341 29.4432 104.001 27.3585 104.001 30.6182C104.001 32.2159 101.82 33.007 99.6879 33.007C95.7194 33.007 95.1858 31.4093 95.1858 30.5126H97.4498C97.4498 31.4377 98.587 31.515 99.6309 31.515C100.981 31.515 101.942 31.2109 101.942 30.6182C101.942 28.8221 95.1055 31.1207 95.1055 27.6497C95.1055 26.0933 97.0483 25.248 99.7035 25.248H99.6983Z" fill="black"/>
<path d="M39.5194 0H16.9517C7.58992 0 0 7.55019 0 16.8629V26.1345C0 35.4472 7.58992 42.9974 16.9517 42.9974H39.5168C48.8785 42.9974 56.4685 35.4472 56.4685 26.1345V16.8629C56.4711 7.55019 48.8811 0 39.5194 0ZM45.9073 30.2214C45.9073 31.4016 44.9437 32.3602 43.7573 32.3602H40.2939C39.1075 32.3602 38.1439 31.4016 38.1439 30.2214V23.787C38.1439 23.7097 38.149 23.6349 38.1568 23.5602C38.1335 23.1608 38.1568 22.6171 38.061 22.0811C37.947 21.4188 37.5869 21.0606 37.144 21.4807C37.0688 21.5528 36.9885 21.6456 36.9031 21.7667C36.8694 21.8131 36.8357 21.862 36.802 21.9162L36.6337 22.2177L35.1934 24.8074L31.5953 31.2753C31.5823 31.2985 31.5694 31.3217 31.5564 31.3475L31.5487 31.3578C31.1912 31.9762 30.6058 32.3808 29.9426 32.3834C28.8495 32.3834 27.9661 31.2959 27.9635 29.9534V29.9405L28.0387 24.1606C28.0387 24.1606 28.0387 24.1426 28.0387 24.1116V23.8617C28.0464 23.3644 28.0231 22.3594 27.8366 21.7667C27.7045 21.3518 27.4014 21.223 27.0802 21.5116C26.9947 21.5992 26.9015 21.7152 26.8004 21.8646C26.7901 21.8827 26.7771 21.9007 26.7642 21.9213L21.5574 31.283C21.5471 31.3062 21.5315 31.3294 21.5186 31.3526L21.5108 31.3655C21.1533 31.9839 20.5679 32.3885 19.9047 32.3885C18.8142 32.3885 17.9283 31.3037 17.9257 29.9585C17.9257 29.9379 17.9257 29.9173 17.9257 29.8993C17.9205 29.8812 17.9153 29.8632 17.9179 29.8426L17.993 24.6296L17.9982 24.2199L18.0034 24.2121V24.1761C18.0034 24.1761 18.0034 24.158 18.0034 24.1271V23.8772C18.0112 23.3798 17.9619 22.4753 17.8713 21.9909C17.7858 21.5348 17.5449 21.375 17.2548 21.3235H12.7474C11.5973 21.3235 10.6673 20.3958 10.6673 19.2543V12.6859C10.6673 11.5417 11.5999 10.6166 12.7474 10.6166H16.3481C17.3325 10.6166 18.1562 11.2995 18.3738 12.2143H18.4308V19.749C18.4386 20.0943 18.4438 20.4963 18.5137 20.8957C18.6303 21.5734 18.9178 22.0167 19.3608 21.5116L19.3504 21.5322L19.3582 21.5245C19.3582 21.5245 19.5758 21.2591 19.7131 21.0426L19.8037 20.8803C19.8115 20.8622 19.8141 20.8571 19.8167 20.8571L24.8783 11.784L24.8861 11.7711C24.9017 11.7427 24.9172 11.7144 24.9327 11.686V11.6783C25.2954 11.0599 25.8808 10.6553 26.544 10.6553C27.6371 10.6553 28.5205 11.7453 28.5205 13.0904C28.5205 13.0904 28.5205 13.0982 28.5205 13.1007V13.2141L28.4376 18.8806C28.4376 18.8806 28.4376 18.9038 28.4376 18.9425V19.1048C28.435 19.128 28.435 19.1538 28.435 19.1795C28.4324 19.579 28.4428 20.3031 28.5464 20.8803C28.6863 21.6868 29.0049 22.2022 29.7043 21.1328C29.7043 21.1276 29.7095 21.1251 29.7121 21.1225L29.8468 20.8803L34.9292 11.7633L34.9395 11.7453L34.9499 11.7247L34.9706 11.686C35.3281 11.0676 35.9135 10.6656 36.5767 10.6656H42.3118C42.8895 10.6656 43.2211 11.4773 42.874 12.0468L40.0582 16.6851L40.0245 16.7418L39.0635 18.324C38.4547 19.4475 38.4832 20.4834 38.6257 20.9473C38.8536 21.6971 39.5971 21.6507 40.1385 21.6507C40.1385 21.6507 40.1385 21.6559 40.1385 21.6585C40.1877 21.6559 40.2369 21.6507 40.2861 21.6507H43.7495C44.9359 21.6507 45.8996 22.6093 45.8996 23.7895V30.2239L45.9073 30.2214Z" fill="black"/>
</g>
<defs>
<clipPath id="clip0_1347_96">
<rect width="104" height="43" fill="white"/>
</clipPath>
</defs>
</svg>
